HIERARCHY
ROOT Hips
{
	OFFSET 0.000000 0.000000 0.000000
	CHANNELS 6 Xposition Yposition Zposition Zrotation Yrotation Xrotation 
	JOINT LHipJoint
	{
		OFFSET 0.000000 0.000000 0.000000
		CHANNELS 3 Zrotation Yrotation Xrotation
		JOINT LeftUpLeg
		{
			OFFSET 1.363060 -1.794630 0.839290
			CHANNELS 3 Zrotation Yrotation Xrotation
			JOINT LeftLeg
			{
				OFFSET 2.448110 -6.726130 0.000000
				CHANNELS 3 Zrotation Yrotation Xrotation
				JOINT LeftFoot
				{
					OFFSET 2.562200 -7.039590 0.000000
					CHANNELS 3 Zrotation Yrotation Xrotation
					JOINT LeftToeBase
					{
						OFFSET 0.157640 -0.433110 2.322550
						CHANNELS 3 Zrotation Yrotation Xrotation
						End Site
						{
							OFFSET 0.000000 0.000000 0.000000
						}
					}
				}
			}
		}
	}
	JOINT RHipJoint
	{
		OFFSET 0.000000 0.000000 0.000000
		CHANNELS 3 Zrotation Yrotation Xrotation
		JOINT RightUpLeg
		{
			OFFSET -1.305520 -1.794630 0.839290
			CHANNELS 3 Zrotation Yrotation Xrotation
			JOINT RightLeg
			{
				OFFSET -2.542530 -6.985550 0.000000
				CHANNELS 3 Zrotation Yrotation Xrotation
				JOINT RightFoot
				{
					OFFSET -2.568260 -7.056230 0.000000
					CHANNELS 3 Zrotation Yrotation Xrotation
					JOINT RightToeBase
					{
						OFFSET -0.164730 -0.452590 2.363150
						CHANNELS 3 Zrotation Yrotation Xrotation
						End Site
						{
							OFFSET 0.000000 0.000000 0.000000
						}
					}
				}
			}
		}
	}
	JOINT LowerBack
	{
		OFFSET 0.000000 0.000000 0.000000
		CHANNELS 3 Zrotation Yrotation Xrotation
		JOINT Spine
		{
			OFFSET 0.028270 2.035590 -0.193380
			CHANNELS 3 Zrotation Yrotation Xrotation
			JOINT Spine1
			{
				OFFSET 0.056720 2.048850 -0.042750
				CHANNELS 3 Zrotation Yrotation Xrotation
				JOINT Neck
				{
					OFFSET 0.000000 0.000000 0.000000
					CHANNELS 3 Zrotation Yrotation Xrotation
					JOINT Neck1
					{
						OFFSET -0.054170 1.746240 0.172020
						CHANNELS 3 Zrotation Yrotation Xrotation
						JOINT Head
						{
							OFFSET 0.104070 1.761360 -0.123970
							CHANNELS 3 Zrotation Yrotation Xrotation
							End Site
							{
								OFFSET 0.000000 0.000000 0.000000
							}
						}
					}
				}
				JOINT LeftShoulder
				{
					OFFSET 0.000000 0.000000 0.000000
					CHANNELS 3 Zrotation Yrotation Xrotation
					JOINT LeftArm
					{
						OFFSET 3.362410 1.200890 -0.311210
						CHANNELS 3 Zrotation Yrotation Xrotation
						JOINT LeftForeArm
						{
							OFFSET 4.983000 -0.000000 -0.000000
							CHANNELS 3 Zrotation Yrotation Xrotation
							JOINT LeftHand
							{
								OFFSET 3.483560 -0.000000 -0.000000
								CHANNELS 3 Zrotation Yrotation Xrotation
								JOINT LeftFingerBase
								{
									OFFSET 0.000000 0.000000 0.000000
									CHANNELS 3 Zrotation Yrotation Xrotation
									JOINT LeftHandIndex1
									{
										OFFSET 0.715260 -0.000000 -0.000000
										CHANNELS 3 Zrotation Yrotation Xrotation
										End Site
										{
											OFFSET 0.000000 0.000000 0.000000
										}
									}
								}
								JOINT LThumb
								{
									OFFSET 0.000000 0.000000 0.000000
									CHANNELS 3 Zrotation Yrotation Xrotation
									End Site
									{
										OFFSET 0.000000 0.000000 0.000000
									}
								}
							}
						}
					}
				}
				JOINT RightShoulder
				{
					OFFSET 0.000000 0.000000 0.000000
					CHANNELS 3 Zrotation Yrotation Xrotation
					JOINT RightArm
					{
						OFFSET -3.136600 1.374050 -0.404650
						CHANNELS 3 Zrotation Yrotation Xrotation
						JOINT RightForeArm
						{
							OFFSET -5.241900 -0.000000 -0.000000
							CHANNELS 3 Zrotation Yrotation Xrotation
							JOINT RightHand
							{
								OFFSET -3.444170 -0.000000 -0.000000
								CHANNELS 3 Zrotation Yrotation Xrotation
								JOINT RightFingerBase
								{
									OFFSET 0.000000 0.000000 0.000000
									CHANNELS 3 Zrotation Yrotation Xrotation
									JOINT RightHandIndex1
									{
										OFFSET -0.622530 -0.000000 -0.000000
										CHANNELS 3 Zrotation Yrotation Xrotation
										End Site
										{
											OFFSET 0.000000 0.000000 0.000000
										}
									}
								}
								JOINT RThumb
								{
									OFFSET 0.000000 0.000000 0.000000
									CHANNELS 3 Zrotation Yrotation Xrotation
									End Site
									{
										OFFSET 0.000000 0.000000 0.000000
									}
								}
							}
						}
					}
				}
			}
		}
	}
}
MOTION
Frames: 5
Frame Time: 0.008333
4.871992 16.857470 -5.739975 177.975051 29.030702 -172.252003 -7.789086 2.609033 1.558649 -24.156917 12.140161 -35.070575 -4.038887 -0.569130 9.449402 1.090319 7.201631 0.109267 1.465500 0.000001 -9.821100 12.193647 -3.532260 -2.039273 -4.472550 -22.586237 6.841340 0.325026 -1.038946 15.985836 -1.322630 -8.751772 12.541833 -3.165500 -0.000000 -85.351000 -6.154795 -0.294479 -1.022945 -2.368198 -0.015983 -3.309249 -7.673206 -0.138946 0.269296 11.062205 -2.406130 -6.532603 -4.531826 -0.355445 0.203465 0.000000 0.000000 0.000000 -5.979254 9.378346 1.826763 -64.498676 4.798076 9.113213 -3.633643 -18.495949 -0.003946 1.151868 4.634499 0.049305 -0.057292 -0.023650 -0.000000 0.000000 0.000000 0.000000 0.000000 0.000000 0.000000 20.707948 1.794794 1.872358 54.527057 12.196875 -5.165604 3.336443 24.714655 0.013817 1.465021 6.401495 0.079456 0.083731 -0.117292 -0.000000 0.000000 0.000000 0.000000 0.000000 0.000000 0.000000 
4.927197 16.876959 -5.887124 177.652201 28.611560 -172.479275 -7.708566 2.698861 1.617712 -24.281657 11.703648 -34.276346 -4.016326 -0.546189 9.609471 1.075675 7.242823 0.382817 1.508800 -0.000000 -9.501900 12.393287 -3.485731 -2.022845 -5.081055 -22.571912 6.289213 0.099282 -1.195707 17.833473 -1.463157 -9.319657 14.413522 -3.559101 0.000000 -86.175000 -6.541398 -0.343986 -1.100129 -2.448420 -0.041919 -3.320312 -7.696261 -0.165277 0.270787 11.141816 -2.626659 -6.548046 -4.534523 -0.356160 0.199207 0.000000 0.000000 0.000000 -5.797324 9.267818 1.812064 -64.558861 4.752780 8.743858 -3.664385 -17.999726 -0.004032 1.205325 4.681944 0.052000 -0.057740 -0.022908 -0.000000 0.000000 0.000000 0.000000 0.000000 0.000000 0.000000 20.819085 1.577502 1.801078 55.376496 11.756820 -4.971011 3.318493 24.894613 0.013773 1.590700 6.365046 0.086260 0.081802 -0.115734 -0.000000 0.000000 0.000000 0.000000 0.000000 0.000000 0.000000 
4.977898 16.896695 -6.032944 177.371132 28.211626 -172.658172 -7.640559 2.761037 1.682975 -24.344699 11.197820 -33.456537 -3.989121 -0.541392 9.736818 1.082591 7.332740 0.379481 1.519500 0.000000 -9.090000 12.564828 -3.414863 -1.999998 -5.557509 -22.435398 5.606709 -0.123347 -1.340431 19.860339 -1.640968 -10.071455 16.242118 -4.043300 -0.000000 -86.279200 -6.864565 -0.389683 -1.177448 -2.514974 -0.067731 -3.332124 -7.713896 -0.191570 0.268777 11.194457 -2.824887 -6.564422 -4.537297 -0.356816 0.194813 0.000000 0.000000 0.000000 -5.647200 9.152713 1.802276 -64.628759 4.669436 8.404181 -3.691203 -17.562527 -0.004123 1.249710 4.729709 0.054399 -0.058160 -0.021846 -0.000000 0.000000 0.000000 0.000000 0.000000 0.000000 0.000000 20.902014 1.382901 1.736708 56.196169 11.327347 -4.783123 3.303937 25.048977 0.013748 1.732022 6.319615 0.093663 0.079917 -0.114357 -0.000000 0.000000 0.000000 0.000000 0.000000 0.000000 0.000000 
5.023959 16.916426 -6.177077 177.140249 27.834762 -172.785435 -7.587069 2.799039 1.745967 -24.364625 10.678133 -32.636140 -3.961205 -0.552057 9.831625 1.104860 7.442398 0.134799 1.496700 -0.000000 -8.616500 12.705465 -3.323334 -1.965913 -5.887940 -22.169965 4.792615 -0.331468 -1.471429 22.058939 -1.846116 -10.974927 17.946148 -4.609100 0.000000 -85.486800 -7.118340 -0.432552 -1.254820 -2.566640 -0.094813 -3.344696 -7.727807 -0.219299 0.263672 11.222967 -2.987146 -6.581268 -4.541054 -0.357459 0.190337 0.000000 0.000000 0.000000 -5.530957 9.050338 1.798447 -64.702095 4.535978 8.131089 -3.713575 -17.190213 -0.004224 1.282311 4.775408 0.056198 -0.058565 -0.020450 -0.000000 0.000000 0.000000 0.000000 0.000000 0.000000 0.000000 20.961151 1.225596 1.678755 56.980458 10.903568 -4.610404 3.292873 25.182935 0.013748 1.897112 6.262462 0.102165 0.078000 -0.113102 -0.000000 0.000000 0.000000 0.000000 0.000000 0.000000 0.000000 
5.066291 16.935860 -6.318496 176.936700 27.483245 -172.889602 -7.542085 2.819942 1.794567 -24.378896 10.201346 -31.796139 -3.938127 -0.577374 9.863099 1.135726 7.551506 -0.285216 1.444500 -0.000000 -8.113100 12.824409 -3.212313 -1.923180 -6.114266 -21.797577 3.871713 -0.516786 -1.590621 24.405521 -2.064718 -11.966164 19.455655 -5.225800 -0.000000 -83.960900 -7.329104 -0.474659 -1.315476 -2.608891 -0.123474 -3.355556 -7.739892 -0.248741 0.252159 11.239302 -3.134456 -6.597914 -4.546903 -0.358180 0.185759 0.000000 0.000000 0.000000 -5.434359 8.918480 1.799988 -64.779660 4.403331 7.893942 -3.731091 -16.923802 -0.004321 1.300698 4.820583 0.057500 -0.058884 -0.018976 -0.000000 0.000000 0.000000 0.000000 0.000000 0.000000 0.000000 21.018374 1.080136 1.632105 57.718605 10.526994 -4.401406 3.285406 25.272528 0.013765 2.067702 6.202967 0.110663 0.076183 -0.111988 -0.000000 0.000000 0.000000 0.000000 0.000000 0.000000 0.000000 
